<svg width="17" height="17" viewBox="0 0 17 17" fill="none" xmlns="http://www.w3.org/2000/svg">
<path fill-rule="evenodd" clip-rule="evenodd" d="M12.1429 0H14.5714C15.9126 0 17 1.08739 17 2.42857V4.85714C17 6.19832 15.9126 7.28571 14.5714 7.28571H12.1429C10.8017 7.28571 9.71429 6.19832 9.71429 4.85714V2.42857C9.71429 1.08739 10.8017 0 12.1429 0ZM12.1429 9.71429H14.5714C15.9126 9.71429 17 10.8017 17 12.1429V14.5714C17 15.9126 15.9126 17 14.5714 17H12.1429C10.8017 17 9.71429 15.9126 9.71429 14.5714V12.1429C9.71429 10.8017 10.8017 9.71429 12.1429 9.71429ZM4.85714 9.71429H2.42857C1.08739 9.71429 0 10.8017 0 12.1429V14.5714C0 15.9126 1.08739 17 2.42857 17H4.85714C6.19832 17 7.28571 15.9126 7.28571 14.5714V12.1429C7.28571 10.8017 6.19832 9.71429 4.85714 9.71429ZM2.42857 0H4.85714C6.19832 0 7.28571 1.08739 7.28571 2.42857V4.85714C7.28571 6.19832 6.19832 7.28571 4.85714 7.28571H2.42857C1.08739 7.28571 0 6.19832 0 4.85714V2.42857C0 1.08739 1.08739 0 2.42857 0Z" fill="#505050"/>
</svg>
